# xmcd
#
# Track frame offsets:
#	150
#	12091
#	25037
#	35137
#	47712
#	65568
#	82901
#	94788
#	103985
#	116830
#
# Disc length: 1800 seconds
#
# Revision: 0
# Processed by: cddbd v1.5.1PL0 Copyright (c) Steve Scherf et al.
# Submitted via: dBpowerAMP V4.0
#
DISCID=7e07060a
DTITLE=Jake Holmes - The above ground sound
DYEAR=1967
DGENRE=Pop
TTITLE0=Lonely
TTITLE1=Did you know
TTITLE2=She belongs to me
TTITLE3=Too long
TTITLE4=Genuine imitation life
TTITLE5=Dazed and confused
TTITLE6=Penny's
TTITLE7=Hard to keep my mind on you
TTITLE8=Wish I was antwhere else
TTITLE9=Signs of age
EXTD=
EXTT0=
EXTT1=
EXTT2=
EXTT3=
EXTT4=
EXTT5=
EXTT6=
EXTT7=
EXTT8=
EXTT9=
PLAYORDER=
